<svg viewBox="0 0 820 360" xmlns="http://www.w3.org/2000/svg" role="img" aria-label="GoldShore Labs Penrose logo">
  <defs>
    <linearGradient id="penrose-a" x1="0" y1="0" x2="1" y2="1">
      <stop offset="0%" stop-color="#F7C66B"/>
      <stop offset="100%" stop-color="#F0951C"/>
    </linearGradient>
    <linearGradient id="penrose-b" x1="0" y1="0" x2="1" y2="1">
      <stop offset="0%" stop-color="#F0951C"/>
      <stop offset="100%" stop-color="#C96918"/>
    </linearGradient>
    <linearGradient id="penrose-c" x1="0" y1="0" x2="1" y2="1">
      <stop offset="0%" stop-color="#F9DFA3"/>
      <stop offset="100%" stop-color="#F7C66B"/>
    </linearGradient>
    <linearGradient id="penrose-light" x1="0" y1="0" x2="1" y2="1">
      <stop offset="0%" stop-color="#FFF4DA"/>
      <stop offset="100%" stop-color="#F9DFA3"/>
    </linearGradient>
    <filter id="shadow" x="-20%" y="-20%" width="140%" height="140%">
      <feDropShadow dx="0" dy="6" stdDeviation="12" flood-opacity="0.18" flood-color="#4A3310"/>
    </filter>
  </defs>
  <g transform="translate(70,30)" filter="url(#shadow)">
    <path d="M120 20H250L330 130L200 130Z" fill="url(#penrose-a)"/>
    <path d="M250 20L330 130V270L250 350L200 270V130Z" fill="url(#penrose-b)"/>
    <path d="M120 210L200 130V270L120 350L40 240V100Z" fill="url(#penrose-c)"/>
    <path d="M200 130L250 130L170 220L120 210Z" fill="url(#penrose-light)"/>
    <path d="M200 270L250 270L210 320L160 310Z" fill="#EAA64A" opacity="0.6"/>
    <path d="M120 210L80 150L120 150Z" fill="#FBEBCB" opacity="0.7"/>
  </g>
  <g fill="#1B1B1F" font-family="'Inter Tight', 'Inter', 'Inter var', 'Arial', sans-serif" font-weight="700">
    <text font-size="84" x="430" y="170" letter-spacing="0.02em">GoldShore</text>
    <text font-size="48" x="430" y="235" letter-spacing="0.18em">LABS</text>
  </g>
</svg>
