<svg viewBox="0 0 820 360" xmlns="http://www.w3.org/2000/svg" role="img" aria-label="GoldShore Labs Penrose logo">
  <defs>
    <linearGradient id="penrose-top" gradientUnits="userSpaceOnUse" x1="120" y1="20" x2="280" y2="160">
      <stop offset="0%" stop-color="#FFE8B2"/>
      <stop offset="42%" stop-color="#F8C15B"/>
      <stop offset="100%" stop-color="#E58C24"/>
    </linearGradient>
    <linearGradient id="penrose-right" gradientUnits="userSpaceOnUse" x1="248" y1="20" x2="330" y2="340">
      <stop offset="0%" stop-color="#F39C38"/>
      <stop offset="55%" stop-color="#D97B16"/>
      <stop offset="100%" stop-color="#9F5010"/>
    </linearGradient>
    <linearGradient id="penrose-left" gradientUnits="userSpaceOnUse" x1="60" y1="90" x2="210" y2="330">
      <stop offset="0%" stop-color="#FFF5D6"/>
      <stop offset="48%" stop-color="#F7D18B"/>
      <stop offset="100%" stop-color="#E7A74A"/>
    </linearGradient>
    <linearGradient id="penrose-glow" gradientUnits="userSpaceOnUse" x1="150" y1="120" x2="260" y2="240">
      <stop offset="0%" stop-color="#FFFFFF" stop-opacity="0.88"/>
      <stop offset="70%" stop-color="#FCE0AF" stop-opacity="0.32"/>
      <stop offset="100%" stop-color="#F6BF72" stop-opacity="0"/>
    </linearGradient>
    <filter id="penrose-shadow" x="-20%" y="-20%" width="140%" height="140%">
      <feDropShadow dx="0" dy="8" stdDeviation="14" flood-opacity="0.18" flood-color="#3B2710"/>
    </filter>
  </defs>
  <g transform="translate(66,24)" filter="url(#penrose-shadow)">
    <path d="M120 24L248 24L330 132L204 132Z" fill="url(#penrose-top)"/>
    <path d="M248 24L330 132V282L250 352L204 282V132Z" fill="url(#penrose-right)"/>
    <path d="M120 216L204 132V282L120 352L42 244V104Z" fill="url(#penrose-left)"/>
    <path d="M204 132L248 132L170 216L126 208Z" fill="url(#penrose-glow)"/>
    <path d="M204 282L250 282L214 330L168 320Z" fill="#EBAB58" opacity="0.72"/>
    <path d="M120 216L80 156L122 156Z" fill="#FFF2D6" opacity="0.72"/>
    <path d="M248 132L204 132L248 198L262 182Z" fill="#F6C57B" opacity="0.65"/>
  </g>
  <g fill="#1A1A1F" font-family="'Inter Tight', 'Inter', 'Inter var', 'Arial', sans-serif" font-weight="700" letter-spacing="0.02em">
    <text font-size="86" x="428" y="168">GoldShore</text>
    <text font-size="48" x="428" y="236" letter-spacing="0.18em">LABS</text>
  </g>
</svg>
